<?xml version="1.0" encoding="UTF-8"?>
<svg version="1.1" xmlns="http://www.w3.org/2000/svg" width="1600" height="1600">
<path d="M0 0 C0 22.11 0 44.22 0 67 C-6.414375 67.12375 -12.82875 67.2475 -19.4375 67.375 C-77.06624108 67.44853393 -77.06624108 67.44853393 -128 91 C-132.51379951 96.48104227 -132.27611764 102.93022151 -131.66796875 109.69140625 C-129.39514705 126.66866445 -122.32900361 142.35248819 -114.01757812 157.16992188 C-102.32314008 178.20195344 -95.65298113 201.10118325 -101.625 225.1875 C-106.84514515 241.76054824 -116.8354732 251.98975376 -132 260 C-173.1548194 278.25165295 -226.58024684 259.80428838 -268.44561768 251.15206909 C-283.90610681 247.9629012 -299.33125755 244.99062761 -315 243 C-315.8859082 242.88720703 -316.77181641 242.77441406 -317.68457031 242.65820312 C-322.45202578 242.06116721 -327.22202437 241.50574672 -332 241 C-324.67651559 259.02869544 -314.80745149 274.62297074 -303.0078125 290.0390625 C-282.25867255 317.19542873 -262.39940979 345.70454894 -266.82373047 381.48779297 C-268.65566104 393.66999187 -272.72074481 405.98882095 -280 416 C-280.58394531 416.8146875 -281.16789062 417.629375 -281.76953125 418.46875 C-302.34502817 445.6233773 -335.66312997 456.48295887 -367 466 C-367.69927612 466.21251404 -368.39855225 466.42502808 -369.11901855 466.64398193 C-399.54047883 475.81792843 -430.7304931 482.20577762 -461.75 488.98266602 C-463.51581378 489.36909726 -465.28162698 489.75553113 -467.04743958 490.14196777 C-470.3700041 490.8688981 -473.69357367 491.59096266 -477.01786804 492.30993652 C-478.52325025 492.63822545 -480.0286075 492.96662886 -481.53393555 493.29516602 C-482.20544899 493.43903275 -482.87696243 493.58289949 -483.56882477 493.73112583 C-487.47618199 494.58815253 -491.22795133 495.66970574 -495 497 C-494.31035156 497.73863281 -493.62070312 498.47726562 -492.91015625 499.23828125 C-487.57804206 504.98121951 -482.41484705 510.79779724 -477.5 516.90625 C-475.60095353 519.25632 -473.68541304 521.58643622 -471.75 523.90625 C-463.85146736 533.38536727 -456.28494569 543.04242925 -449 553 C-448.46487793 553.72864258 -447.92975586 554.45728516 -447.37841797 555.20800781 C-428.57573224 580.84853552 -428.57573224 580.84853552 -425 588 C-419.80312989 587.43465011 -414.99228033 586.21907257 -409.97167969 584.77856445 C-366.80464593 572.43225905 -321.78896674 567.10402963 -277 566 C-276.12230957 565.97663574 -275.24461914 565.95327148 -274.34033203 565.92919922 C-192.46653828 564.02068179 -99.61626022 581.89270107 -38 639 C-30.61523427 646.28148229 -24.60705531 654.32216487 -19 663 C-18.38253906 663.94359375 -17.76507812 664.8871875 -17.12890625 665.859375 C-4.13938875 686.80461035 0 709.66279349 0 734 C-22.11 734 -44.22 734 -67 734 C-67.99 727.73 -68.98 721.46 -70 715 C-71.51920567 710.61118362 -72.86965556 707.01555335 -75 703 C-75.48082031 702.0925 -75.96164062 701.185 -76.45703125 700.25 C-84.27146964 686.8646846 -95.90626367 677.8124275 -109 670 C-109.59119629 669.64454102 -110.18239258 669.28908203 -110.79150391 668.92285156 C-160.42239167 639.58236005 -224.91126596 634.31031427 -281.34165955 634.67378998 C-283.72936363 634.68774467 -286.11702542 634.69593147 -288.50476074 634.70245361 C-314.04135687 634.77569259 -339.51149756 635.35317793 -365 637 C-366.53645327 637.09708537 -368.0729116 637.19409072 -369.609375 637.29101562 C-377.74344923 637.80904466 -385.87363176 638.3716309 -394 639 C-392.03714887 645.35657426 -389.57884951 651.29847241 -386.75 657.3125 C-382.14846419 667.33163991 -378.38612106 677.51339038 -375 688 C-374.75765625 688.74378906 -374.5153125 689.48757813 -374.265625 690.25390625 C-369.67496918 704.51044293 -366.69859747 719.00198564 -366 734 C-365.95875 734.81339844 -365.9175 735.62679687 -365.875 736.46484375 C-365.44679313 752.97757112 -369.37997913 769.13076073 -380 782 C-380.48726562 782.62261719 -380.97453125 783.24523437 -381.4765625 783.88671875 C-384.96460034 787.86665936 -389.11047946 790.34233444 -393.75 792.7890625 C-394.4097583 793.13817688 -395.0695166 793.48729126 -395.74926758 793.84698486 C-402.28542066 797.24417108 -409.00161718 800.10495693 -415.82492065 802.86853027 C-419.74585693 804.45752363 -423.65514546 806.07487319 -427.56640625 807.6875 C-428.40184464 808.03117615 -429.23728302 808.37485229 -430.09803772 808.72894287 C-440.41551175 812.98048137 -450.67446632 817.36911267 -460.9375 821.75 C-464.95415331 823.4628822 -468.97115049 825.17495663 -472.98828125 826.88671875 C-474.48690704 827.52537117 -474.48690704 827.52537117 -476.01580811 828.17692566 C-486.54284921 832.66095123 -497.08254156 837.11486616 -507.625 841.5625 C-509.01064651 842.14710999 -509.01064651 842.14710999 -510.42428589 842.74353027 C-515.08509611 844.70979451 -519.74611162 846.67557153 -524.40722656 848.64111328 C-532.83450286 852.19508782 -541.25991575 855.75347583 -549.68548584 859.31149292 C-554.37358243 861.29117242 -559.06179714 863.27057218 -563.75 865.25 C-565.62500057 866.04166532 -567.50000057 866.83333199 -569.375 867.625 C-573.125 869.20833333 -576.875 870.79166667 -580.625 872.375 C-581.55309982 872.76686493 -582.48119965 873.15872986 -583.43742371 873.56246948 C-585.3126764 874.35424171 -587.18793071 875.1460101 -589.06318665 875.93777466 C-593.74683373 877.91529478 -598.43045276 879.89288128 -603.11401367 881.87060547 C-611.59743073 885.4528154 -620.08105831 889.03452271 -628.5657196 892.61378479 C-647.53289451 900.61515851 -666.49516792 908.62746604 -685.4375 916.6875 C-699.73738061 922.77209306 -714.05135849 928.82222194 -728.37646484 934.84716797 C-729.96191746 935.51398931 -731.54736666 936.1808188 -733.1328125 936.84765625 C-733.92742889 937.18186584 -734.72204529 937.51607544 -735.54074097 937.8604126 C-750.15397163 944.00813955 -764.75590407 950.18270084 -779.36026001 956.35147095 C-786.05717062 959.18001107 -792.75496254 962.00645703 -799.453125 964.83203125 C-817.31139705 972.36622144 -835.16459904 979.91180728 -853 987.5 C-872.74879852 995.90226073 -892.52005338 1004.2509282 -912.29443359 1012.59277344 C-920.76129877 1016.16471806 -929.22687143 1019.73972381 -937.6925354 1023.31451416 C-942.37830338 1025.29313629 -947.06415599 1027.27155795 -951.75 1029.25 C-953.62500041 1030.04166571 -955.50000041 1030.83333237 -957.375 1031.625 C-961.125 1033.20833333 -964.875 1034.79166667 -968.625 1036.375 C-969.55309982 1036.76686493 -970.48119965 1037.15872986 -971.43742371 1037.56246948 C-973.3126764 1038.35424171 -975.18793071 1039.1460101 -977.06318665 1039.93777466 C-981.74683373 1041.91529478 -986.43045276 1043.89288128 -991.11401367 1045.87060547 C-999.59743073 1049.4528154 -1008.08105831 1053.03452271 -1016.5657196 1056.61378479 C-1035.53289451 1064.61515851 -1054.49516792 1072.62746604 -1073.4375 1080.6875 C-1086.17710326 1086.10819572 -1098.92566715 1091.5068399 -1111.6875 1096.875 C-1112.45141052 1097.19633911 -1113.21532104 1097.51767822 -1114.00238037 1097.84875488 C-1115.55786905 1098.50304741 -1117.1133602 1099.15733406 -1118.66885376 1099.81161499 C-1119.45102264 1100.14061798 -1120.23319153 1100.46962097 -1121.0390625 1100.80859375 C-1121.82872406 1101.14073883 -1122.61838562 1101.47288391 -1123.43197632 1101.81509399 C-1132.83667632 1105.77156209 -1142.23792444 1109.73620708 -1151.63809204 1113.70343018 C-1153.54503933 1114.50814215 -1155.45207842 1115.31263664 -1157.35922241 1116.11688232 C-1160.05353207 1117.25311509 -1162.74748726 1118.39018508 -1165.44140625 1119.52734375 C-1166.30507309 1119.89130249 -1167.16873993 1120.25526123 -1168.05857849 1120.63024902 C-1172.68447156 1122.58347409 -1177.29890364 1124.56015058 -1181.90185547 1126.56689453 C-1182.86486069 1126.98516006 -1183.82786591 1127.4034256 -1184.8200531 1127.83436584 C-1186.66898428 1128.63864698 -1188.51597858 1129.44739972 -1190.36073303 1130.26121521 C-1191.18778244 1130.62046585 -1192.01483185 1130.97971649 -1192.86694336 1131.34985352 C-1193.59457382 1131.66922379 -1194.32220428 1131.98859406 -1195.07188416 1132.31764221 C-1197 1133 -1197 1133 -1200 1133 C-1197.66289801 1125.4211121 -1194.60845136 1118.20691381 -1191.45153809 1110.940979 C-1189.76635357 1107.06073085 -1188.09484539 1103.17458862 -1186.421875 1099.2890625 C-1186.06498596 1098.46087006 -1185.70809692 1097.63267761 -1185.34039307 1096.77938843 C-1181.09432287 1086.91543169 -1176.92154033 1077.02064963 -1172.75 1067.125 C-1171.944021 1065.21386272 -1171.13803134 1063.30272994 -1170.33203125 1061.39160156 C-1168.70080721 1057.52326561 -1167.07002585 1053.65474334 -1165.43945312 1049.78613281 C-1161.85781207 1041.28947385 -1158.27018994 1032.79534049 -1154.68292236 1024.30105591 C-1152.70772008 1019.62395097 -1150.73272864 1014.94675702 -1148.7578125 1010.26953125 C-1148.36633026 1009.34238815 -1147.97484802 1008.41524506 -1147.57150269 1007.46000671 C-1145.17547855 1001.78515601 -1142.78047097 996.1098774 -1140.38621521 990.4342804 C-1132.38484149 971.46710549 -1124.37253396 952.50483208 -1116.3125 933.5625 C-1110.22790694 919.26261939 -1104.17777806 904.94864151 -1098.15283203 890.62353516 C-1097.48601069 889.03808254 -1096.8191812 887.45263334 -1096.15234375 885.8671875 C-1095.81813416 885.07257111 -1095.48392456 884.27795471 -1095.1395874 883.45925903 C-1088.99186045 868.84602837 -1082.81729916 854.24409593 -1076.64852905 839.63973999 C-1073.81998893 832.94282938 -1070.99354297 826.24503746 -1068.16796875 819.546875 C-1060.28806353 800.8691555 -1052.39182848 782.1986561 -1044.45544434 763.54486084 C-1036.40208555 744.61415892 -1028.40338138 725.66048598 -1020.40722656 706.70556641 C-1016.83528194 698.23870123 -1013.26027619 689.77312857 -1009.68548584 681.3074646 C-1007.70686371 676.62169662 -1005.72844205 671.93584401 -1003.75 667.25 C-1002.95833429 665.37499959 -1002.16666763 663.49999959 -1001.375 661.625 C-1000.983125 660.696875 -1000.59125 659.76875 -1000.1875 658.8125 C-996.62499998 650.37499996 -996.62499998 650.37499996 -995.43753052 647.56257629 C-994.64575829 645.6873236 -993.8539899 643.81206929 -993.06222534 641.93681335 C-991.08470522 637.25316627 -989.10711872 632.56954724 -987.12939453 627.88598633 C-983.54716953 619.40253358 -979.96544838 610.91886981 -976.38616943 602.43417358 C-968.10079602 582.79376862 -959.80078255 563.15986784 -951.45544434 543.54486084 C-943.40208555 524.61415892 -935.40338138 505.66048598 -927.40722656 486.70556641 C-923.83528194 478.23870123 -920.26027619 469.77312857 -916.68548584 461.3074646 C-914.70686371 456.62169662 -912.72844205 451.93584401 -910.75 447.25 C-909.95833429 445.37499959 -909.16666763 443.49999959 -908.375 441.625 C-907.983125 440.696875 -907.59125 439.76875 -907.1875 438.8125 C-903.625 430.37500001 -903.625 430.37500001 -902.43766785 427.56291199 C-901.64542788 425.68654453 -900.85320174 423.81017123 -900.06098938 421.93379211 C-898.09070714 417.26716645 -896.12019036 412.6006401 -894.14916992 407.93432617 C-890.48064562 399.24855471 -886.81436202 390.56185889 -883.15615845 381.87173462 C-881.45216779 377.82426911 -879.74688094 373.77735028 -878.04150391 369.73046875 C-877.23894019 367.82497778 -876.43699207 365.91922739 -875.63574219 364.01318359 C-871.70029676 354.6517974 -867.73371018 345.30594529 -863.6328125 336.015625 C-863.30976639 335.27951492 -862.98672028 334.54340485 -862.65388489 333.7849884 C-860.28303814 328.45207619 -857.72689596 323.52877088 -854 319 C-853.37996094 318.24589844 -852.75992187 317.49179687 -852.12109375 316.71484375 C-842.29056796 305.87048841 -828.58939178 300.72787527 -814.20117188 299.82421875 C-775.706429 298.12198754 -738.67835428 311.0643183 -705 329 C-703.44978297 318.48610474 -702.4576192 308.04524959 -701.875 297.4375 C-701.83330688 296.69810181 -701.79161377 295.95870361 -701.74865723 295.19689941 C-699.43567212 253.71706913 -700.76453655 209.25510139 -729 176 C-729.58007812 175.27554688 -730.16015625 174.55109375 -730.7578125 173.8046875 C-745.28126034 156.36439658 -767.40614118 145.76565062 -789 140 C-789.73331543 139.80325684 -790.46663086 139.60651367 -791.22216797 139.40380859 C-804.28867632 136.02694262 -817.45105366 135.00837464 -830.89306641 134.23364258 C-833 134 -833 134 -834 133 C-834.09939626 130.94987154 -834.12799553 128.89628608 -834.12939453 126.84375 C-834.13254669 125.52568359 -834.13569885 124.20761719 -834.13894653 122.84960938 C-834.13715675 121.39973925 -834.1351058 119.94986942 -834.1328125 118.5 C-834.13348557 117.02408838 -834.13445563 115.54817687 -834.13571167 114.07226562 C-834.13718848 110.97524971 -834.13503464 107.87826258 -834.13037109 104.78125 C-834.1246738 100.80291451 -834.1279529 96.82464648 -834.13394356 92.84631348 C-834.13754963 89.79752083 -834.13641037 86.74874429 -834.13381577 83.69995117 C-834.13314662 82.23266594 -834.13397447 80.76537926 -834.13629532 79.2980957 C-834.13882257 77.25081407 -834.1342906 75.20352734 -834.12939453 73.15625 C-834.12820114 71.40538086 -834.12820114 71.40538086 -834.12698364 69.61914062 C-834 67 -834 67 -833 66 C-784.0893856 62.91487845 -730.11224163 83.42434331 -693.51855469 115.29003906 C-687.24881544 120.82077456 -681.24438744 126.46772095 -676 133 C-675.23171875 133.94230469 -674.4634375 134.88460937 -673.671875 135.85546875 C-651.95758121 162.94984775 -639.719294 195.78190372 -635 230 C-634.88430664 230.82145508 -634.76861328 231.64291016 -634.64941406 232.48925781 C-629.3418136 272.09939182 -633.72628412 312.8003122 -647.14111328 350.35717773 C-647.52509277 351.44200439 -647.90907227 352.52683105 -648.3046875 353.64453125 C-648.65515137 354.60721924 -649.00561523 355.56990723 -649.36669922 356.56176758 C-650.26526746 359.11180942 -650.26526746 359.11180942 -649 362 C-646.90395755 363.53729914 -644.82175732 364.9333097 -642.625 366.3125 C-621.5997753 379.91554852 -601.90063606 395.69067428 -582.84912109 411.9050293 C-579.31594273 414.90691452 -575.73590233 417.84149237 -572.125 420.75 C-568.40751366 423.77348383 -564.97514613 426.90784088 -561.64453125 430.34765625 C-559.38102334 432.62191717 -556.95469664 434.67569519 -554.51171875 436.75390625 C-552.38990091 438.65133278 -550.35922816 440.5934475 -548.33203125 442.58984375 C-547.67203125 443.23107178 -547.01203125 443.8722998 -546.33203125 444.53295898 C-544.99864368 445.83169008 -543.6766881 447.14227535 -542.3671875 448.46508789 C-541.74714844 449.06442139 -541.12710938 449.66375488 -540.48828125 450.28125 C-539.93696533 450.82845703 -539.38564941 451.37566406 -538.81762695 451.93945312 C-537.00832059 453.22445658 -537.00832059 453.22445658 -534.63378906 452.82958984 C-531.73222074 451.915655 -529.10958367 450.77230595 -526.37109375 449.4453125 C-524.71775024 448.6553186 -524.71775024 448.6553186 -523.03100586 447.84936523 C-521.84514893 447.28032471 -520.65929199 446.71128418 -519.4375 446.125 C-505.20945321 439.40126491 -490.76541593 433.45572254 -476 428 C-474.78844238 427.54866699 -473.57688477 427.09733398 -472.32861328 426.63232422 C-449.49681565 418.1822712 -426.12023975 411.60797112 -402.66796875 405.13818359 C-390.93832239 401.89299993 -379.26309717 398.5622875 -367.70703125 394.73828125 C-366.26762932 394.26476227 -366.26762932 394.26476227 -364.79914856 393.78167725 C-353.94696612 390.11461871 -342.57812868 385.86719302 -336 376 C-334.15430122 370.46290366 -333.90773735 366.27678726 -336.43359375 361.01171875 C-338.51244285 357.58600967 -340.7012666 354.28043548 -343 351 C-343.37979004 350.45214844 -343.75958008 349.90429688 -344.15087891 349.33984375 C-347.04281265 345.18430074 -350.0139336 341.08820198 -353 337 C-390.11905738 286.17727778 -390.11905738 286.17727778 -398 256 C-398.33837891 254.77410156 -398.33837891 254.77410156 -398.68359375 253.5234375 C-401.90365288 239.53283578 -401.70132414 223.24370086 -396 210 C-395.71125 209.27167969 -395.4225 208.54335938 -395.125 207.79296875 C-389.48925249 195.03705809 -378.31926362 185.94458059 -365.92578125 180.09375 C-356.1148849 176.4261252 -345.45452811 174.35728699 -335 174 C-334.08089844 173.96003906 -333.16179688 173.92007813 -332.21484375 173.87890625 C-299.29822207 173.15686423 -266.09620976 181.69737448 -234.07595825 188.29360962 C-214.04709618 192.41946541 -214.04709618 192.41946541 -193.9375 196.125 C-192.87160645 196.31263916 -191.80571289 196.50027832 -190.70751953 196.69360352 C-183.49601234 197.9025811 -176.29555719 198.54003235 -169 199 C-169.70962891 197.67331299 -169.70962891 197.67331299 -170.43359375 196.31982422 C-189.08005032 161.34176087 -209.05387191 119.66950646 -197.3984375 79.0390625 C-188.79303123 52.60541543 -169.36577497 33.48939702 -145.06933594 21.02734375 C-125.66169221 11.3922134 -104.34367641 6.22963525 -83 3 C-81.52080078 2.77352783 -81.52080078 2.77352783 -80.01171875 2.54248047 C-53.4937226 -1.28413573 -26.71694754 -0.20342853 0 0 Z " fill="#4E342E" transform="translate(1400,200)"/>
<path d="M0 0 C1.17526087 3.52578262 0.73128585 4.38703474 -0.41015625 7.82421875 C-2.33796134 14.52259913 -2.49592683 20.87593716 -2.4375 27.8125 C-2.42992676 29.08279053 -2.42235352 30.35308105 -2.41455078 31.66186523 C-1.43363004 88.63044843 32.64859228 144.41329335 64 190 C64.44102051 190.64291992 64.88204102 191.28583984 65.33642578 191.94824219 C80.5440074 214.02842938 97.21266352 235.01869181 114.62744141 255.38916016 C116.03318568 257.03894684 117.42927109 258.69654745 118.82421875 260.35546875 C128.58838397 271.92075878 138.78122878 283.20473043 149.77734375 293.6171875 C151 295 151 295 151 297 C151.66 297 152.32 297 153 297 C154.55078125 298.609375 154.55078125 298.609375 156.3125 300.75 C158.99943328 303.91535204 161.69146857 306.47506812 165 309 C166.68137601 310.65182634 168.34501242 312.32173552 170 314 C179.72994708 323.950951 179.72994708 323.950951 190.0234375 333.3046875 C192.50860194 335.4362317 194.90440146 337.65683599 197.3125 339.875 C201.79662928 343.96437787 206.40267238 347.84619021 211.125 351.65625 C213.69375467 353.75034348 216.22072342 355.88213341 218.73803711 358.03710938 C225.08975498 363.47088323 231.58902005 368.65590612 238.26367188 373.68896484 C240.07100356 375.05361208 241.87151814 376.42694872 243.671875 377.80078125 C268.55744999 396.71331206 294.60603608 413.79526218 321.97607422 428.88378906 C323.30508565 429.61674929 324.63230073 430.35297806 325.95751953 431.09277344 C358.22823216 449.0559158 396.26854557 465.22861702 433.8125 465.1875 C434.59004639 465.18669434 435.36759277 465.18588867 436.16870117 465.18505859 C443.43193963 465.10850074 450.88948441 464.76599929 457.63671875 461.8671875 C460 461 460 461 463 462 C461.84628906 462.48654053 460.69257812 462.97308105 459.50390625 463.47436523 C438.99232004 472.1254205 418.48396447 480.78371189 398 489.5 C378.25131848 497.90253416 358.47994555 506.25092865 338.70556641 514.59277344 C330.23870123 518.16471806 321.77312857 521.73972381 313.3074646 525.31451416 C308.62169662 527.29313629 303.93584401 529.27155795 299.25 531.25 C297.37499959 532.04166571 295.49999959 532.83333237 293.625 533.625 C289.875 535.20833333 286.125 536.79166667 282.375 538.375 C281.44690018 538.76686493 280.51880035 539.15872986 279.56257629 539.56246948 C277.6873236 540.35424171 275.81206929 541.1460101 273.93681335 541.93777466 C269.25316627 543.91529478 264.56954724 545.89288128 259.88598633 547.87060547 C251.40256927 551.4528154 242.91894169 555.03452271 234.4342804 558.61378479 C215.46710549 566.61515851 196.50483208 574.62746604 177.5625 582.6875 C163.26261939 588.77209306 148.94864151 594.82222194 134.62353516 600.84716797 C133.03808254 601.51398931 131.45263334 602.1808188 129.8671875 602.84765625 C129.07257111 603.18186584 128.27795471 603.51607544 127.45925903 603.8604126 C112.84602837 610.00813955 98.24409593 616.18270084 83.63973999 622.35147095 C76.94282938 625.18001107 70.24503746 628.00645703 63.546875 630.83203125 C45.68860295 638.36622144 27.83540096 645.91180728 10 653.5 C-9.74879852 661.90226073 -29.52005338 670.2509282 -49.29443359 678.59277344 C-57.76129877 682.16471806 -66.22687143 685.73972381 -74.6925354 689.31451416 C-79.37830338 691.29313629 -84.06415599 693.27155795 -88.75 695.25 C-90.62500041 696.04166571 -92.50000041 696.83333237 -94.375 697.625 C-98.125 699.20833333 -101.875 700.79166667 -105.625 702.375 C-106.55309982 702.76686493 -107.48119965 703.15872986 -108.43742371 703.56246948 C-110.3126764 704.35424171 -112.18793071 705.1460101 -114.06318665 705.93777466 C-118.74683373 707.91529478 -123.43045276 709.89288128 -128.11401367 711.87060547 C-136.59743073 715.4528154 -145.08105831 719.03452271 -153.5657196 722.61378479 C-172.53289451 730.61515851 -191.49516792 738.62746604 -210.4375 746.6875 C-223.17710326 752.10819572 -235.92566715 757.5068399 -248.6875 762.875 C-249.45141052 763.19633911 -250.21532104 763.51767822 -251.00238037 763.84875488 C-252.55786905 764.50304741 -254.1133602 765.15733406 -255.66885376 765.81161499 C-256.84210709 766.30511948 -256.84210709 766.30511948 -258.0390625 766.80859375 C-258.82872406 767.14073883 -259.61838562 767.47288391 -260.43197632 767.81509399 C-269.83667632 771.77156209 -279.23792444 775.73620708 -288.63809204 779.70343018 C-290.54503933 780.50814215 -292.45207842 781.31263664 -294.35922241 782.11688232 C-297.05353207 783.25311509 -299.74748726 784.39018508 -302.44140625 785.52734375 C-303.73690651 786.07328186 -303.73690651 786.07328186 -305.05857849 786.63024902 C-309.68447156 788.58347409 -314.29890364 790.56015058 -318.90185547 792.56689453 C-319.86486069 792.98516006 -320.82786591 793.4034256 -321.8200531 793.83436584 C-323.66898428 794.63864698 -325.51597858 795.44739972 -327.36073303 796.26121521 C-328.18778244 796.62046585 -329.01483185 796.97971649 -329.86694336 797.34985352 C-330.59457382 797.66922379 -331.32220428 797.98859406 -332.07188416 798.31764221 C-334 799 -334 799 -337 799 C-334.66289801 791.4211121 -331.60845136 784.20691381 -328.45153809 776.940979 C-326.76635357 773.06073085 -325.09484539 769.17458862 -323.421875 765.2890625 C-323.06498596 764.46087006 -322.70809692 763.63267761 -322.34039307 762.77938843 C-318.09432287 752.91543169 -313.92154033 743.02064963 -309.75 733.125 C-308.944021 731.21386272 -308.13803134 729.30272994 -307.33203125 727.39160156 C-305.70080721 723.52326561 -304.07002585 719.65474334 -302.43945312 715.78613281 C-298.85781207 707.28947385 -295.27018994 698.79534049 -291.68292236 690.30105591 C-289.70772008 685.62395097 -287.73272864 680.94675702 -285.7578125 676.26953125 C-285.36633026 675.34238815 -284.97484802 674.41524506 -284.57150269 673.46000671 C-282.17547855 667.78515601 -279.78047097 662.1098774 -277.38621521 656.4342804 C-269.38484149 637.46710549 -261.37253396 618.50483208 -253.3125 599.5625 C-247.22790694 585.26261939 -241.17777806 570.94864151 -235.15283203 556.62353516 C-234.48601069 555.03808254 -233.8191812 553.45263334 -233.15234375 551.8671875 C-232.81813416 551.07257111 -232.48392456 550.27795471 -232.1395874 549.45925903 C-225.99186045 534.84602837 -219.81729916 520.24409593 -213.64852905 505.63973999 C-210.81998893 498.94282938 -207.99354297 492.24503746 -205.16796875 485.546875 C-197.28806353 466.8691555 -189.39182848 448.1986561 -181.45544434 429.54486084 C-173.40208555 410.61415892 -165.40338138 391.66048598 -157.40722656 372.70556641 C-153.83528194 364.23870123 -150.26027619 355.77312857 -146.68548584 347.3074646 C-144.70686371 342.62169662 -142.72844205 337.93584401 -140.75 333.25 C-139.95833429 331.37499959 -139.16666763 329.49999959 -138.375 327.625 C-137.983125 326.696875 -137.59125 325.76875 -137.1875 324.8125 C-133.62500004 316.37500009 -133.62500004 316.37500009 -132.43753052 313.56257629 C-131.64575829 311.6873236 -130.8539899 309.81206929 -130.06222534 307.93681335 C-128.08470522 303.25316627 -126.10711872 298.56954724 -124.12939453 293.88598633 C-120.54716953 285.40253358 -116.96544838 276.91886981 -113.38616943 268.43417358 C-105.10079602 248.79376862 -96.80078255 229.15986784 -88.45544434 209.54486084 C-80.40208555 190.61415892 -72.40338138 171.66048598 -64.40722656 152.70556641 C-60.83528194 144.23870123 -57.26027619 135.77312857 -53.68548584 127.3074646 C-51.70686371 122.62169662 -49.72844205 117.93584401 -47.75 113.25 C-46.95833429 111.37499959 -46.16666763 109.49999959 -45.375 107.625 C-44.983125 106.696875 -44.59125 105.76875 -44.1875 104.8125 C-43 102 -41.8125 99.1875 -40.625 96.375 C-40.03729324 94.98306175 -40.03729324 94.98306175 -39.43771362 93.56300354 C-38.64533718 91.6863241 -37.85295843 89.80964564 -37.06057739 87.93296814 C-35.09225147 83.27117149 -33.12396444 78.60935843 -31.15576172 73.94750977 C-27.46413867 65.20371475 -23.7721212 56.46008687 -20.07879639 47.7170105 C-18.34462102 43.61169506 -16.61065716 39.50629031 -14.87670898 35.40087891 C-14.05438605 33.45405702 -13.23196082 31.50727833 -12.40942383 29.56054688 C-8.25010989 19.71646461 -4.09332199 9.87175769 0 0 Z " fill="#FDB100" transform="translate(537,534)"/>
<path d="M0 0 C1.17526087 3.52578262 0.73128585 4.38703474 -0.41015625 7.82421875 C-2.33796134 14.52259913 -2.49592683 20.87593716 -2.4375 27.8125 C-2.42992676 29.08279053 -2.42235352 30.35308105 -2.41455078 31.66186523 C-1.43363004 88.63044843 32.64859228 144.41329335 64 190 C64.44102051 190.64291992 64.88204102 191.28583984 65.33642578 191.94824219 C80.23354248 213.57765924 96.53744034 234.14912967 113.5625 254.1328125 C114.7690625 255.55207031 114.7690625 255.55207031 116 257 C116.48082031 257.51401367 116.96164062 258.02802734 117.45703125 258.55761719 C120.97384251 262.42562517 120.97384251 262.42562517 121.09375 265.05859375 C119.56448785 267.77303407 117.65133048 269.80825093 115.5 272.0625 C111.99781277 275.79116242 108.64899256 279.57503834 105.4375 283.5625 C102.55151207 287.13828469 99.59555196 290.60401318 96.5 294 C93.38541332 297.41739372 90.4081338 300.9052235 87.5 304.5 C83.88967558 308.96276213 80.11572071 313.22719533 76.25 317.46875 C73.92137947 320.0884481 71.70437053 322.7751531 69.5 325.5 C65.88967558 329.96276213 62.11572071 334.22719533 58.25 338.46875 C55.92137947 341.0884481 53.70437053 343.7751531 51.5 346.5 C47.88967558 350.96276213 44.11572071 355.22719533 40.25 359.46875 C37.92137947 362.0884481 35.70437053 364.7751531 33.5 367.5 C29.88967558 371.96276213 26.11572071 376.22719533 22.25 380.46875 C19.92137947 383.0884481 17.70437053 385.7751531 15.5 388.5 C11.88967558 392.96276213 8.11572071 397.22719533 4.25 401.46875 C1.92137947 404.0884481 -0.29562947 406.7751531 -2.5 409.5 C-6.11032442 413.96276213 -9.88427929 418.22719533 -13.75 422.46875 C-16.07862053 425.0884481 -18.29562947 427.7751531 -20.5 430.5 C-24.11032442 434.96276213 -27.88427929 439.22719533 -31.75 443.46875 C-34.07862053 446.0884481 -36.29562947 448.7751531 -38.5 451.5 C-42.11032442 455.96276213 -45.88427929 460.22719533 -49.75 464.46875 C-52.07862053 467.0884481 -54.29562947 469.7751531 -56.5 472.5 C-60.11032442 476.96276213 -63.88427929 481.22719533 -67.75 485.46875 C-70.07862053 488.0884481 -72.29562947 490.7751531 -74.5 493.5 C-78.11032442 497.96276213 -81.88427929 502.22719533 -85.75 506.46875 C-88.07862053 509.0884481 -90.29562947 511.7751531 -92.5 514.5 C-96.11032442 518.96276213 -99.88427929 523.22719533 -103.75 527.46875 C-106.07862053 530.0884481 -108.29562947 532.7751531 -110.5 535.5 C-114.11032442 539.96276213 -117.88427929 544.22719533 -121.75 548.46875 C-124.07862053 551.0884481 -126.29562947 553.7751531 -128.5 556.5 C-132.11032442 560.96276213 -135.88427929 565.22719533 -139.75 569.46875 C-142.07862053 572.0884481 -144.29562947 574.7751531 -146.5 577.5 C-150.11032442 581.96276213 -153.88427929 586.22719533 -157.75 590.46875 C-160.07862053 593.0884481 -162.29562947 595.7751531 -164.5 598.5 C-168.11032442 602.96276213 -171.88427929 607.22719533 -175.75 611.46875 C-178.07862053 614.0884481 -180.29562947 616.7751531 -182.5 619.5 C-186.11032442 623.96276213 -189.88427929 628.22719533 -193.75 632.46875 C-196.07862053 635.0884481 -198.29562947 637.7751531 -200.5 640.5 C-204.11032442 644.96276213 -207.88427929 649.22719533 -211.75 653.46875 C-214.07862053 656.0884481 -216.29562947 658.7751531 -218.5 661.5 C-222.11032442 665.96276213 -225.88427929 670.22719533 -229.75 674.46875 C-232.07862053 677.0884481 -234.29562947 679.7751531 -236.5 682.5 C-240.11032442 686.96276213 -243.88427929 691.22719533 -247.75 695.46875 C-250.07862053 698.0884481 -252.29562947 700.7751531 -254.5 703.5 C-258.11032442 707.96276213 -261.88427929 712.22719533 -265.75 716.46875 C-268.07862053 719.0884481 -270.29562947 721.7751531 -272.5 724.5 C-276.11032442 728.96276213 -279.88427929 733.22719533 -283.75 737.46875 C-286.07862053 740.0884481 -288.29562947 742.7751531 -290.5 745.5 C-294.11032442 749.96276213 -297.88427929 754.22719533 -301.75 758.46875 C-304.07862053 761.0884481 -306.29562947 763.7751531 -308.5 766.5 C-312.10222252 770.95274728 -315.86467313 775.20974742 -319.7265625 779.4375 C-322.9742465 783.09811977 -326.01550412 786.9156181 -329.0546875 790.75 C-331 793 -331 793 -334 795 C-333.45216742 789.08764493 -331.69861242 784.30379945 -329.34375 778.87890625 C-328.96992188 777.99935776 -328.59609375 777.11980927 -328.2109375 776.21360779 C-326.98171869 773.32652362 -325.74087139 770.44459268 -324.5 767.5625 C-323.63265798 765.53094269 -322.76613278 763.49903648 -321.90039062 761.46679688 C-320.12798585 757.30951209 -318.35114266 753.15417081 -316.5703125 749.00048828 C-314.24524213 743.57615363 -311.93169459 738.14701505 -309.625 732.71484375 C-309.28147491 731.90586639 -308.93794983 731.09688904 -308.58401489 730.26339722 C-307.89809777 728.64791149 -307.21223513 727.03240263 -306.52642822 725.41687012 C-305.48971046 722.97577182 -304.45182622 720.53517268 -303.41357422 718.09472656 C-295.70791587 699.98058386 -288.05842375 681.84276244 -280.40722656 663.70556641 C-276.83528194 655.23870123 -273.26027619 646.77312857 -269.68548584 638.3074646 C-267.70686371 633.62169662 -265.72844205 628.93584401 -263.75 624.25 C-262.95833429 622.37499959 -262.16666763 620.49999959 -261.375 618.625 C-260.983125 617.696875 -260.59125 616.76875 -260.1875 615.8125 C-256.625 607.37499999 -256.625 607.37499999 -255.43753052 604.56257629 C-254.64575829 602.6873236 -253.8539899 600.81206929 -253.06222534 598.93681335 C-251.08470522 594.25316627 -249.10711872 589.56954724 -247.12939453 584.88598633 C-243.5471846 576.40256927 -239.96547729 567.91894169 -236.38621521 559.4342804 C-228.38484149 540.46710549 -220.37253396 521.50483208 -212.3125 502.5625 C-206.89180427 489.82289671 -201.49317006 477.07432866 -196.125 464.3125 C-195.8010022 463.54227509 -195.47700439 462.77205017 -195.14318848 461.97848511 C-194.4831581 460.40937056 -193.82313415 458.84025331 -193.16311646 457.27113342 C-192.66665115 456.09084816 -192.66665115 456.09084816 -192.16015625 454.88671875 C-191.82635956 454.09313461 -191.49256287 453.29955048 -191.14865112 452.48191833 C-186.96052622 442.52655068 -182.76274786 432.57525806 -178.5625 422.625 C-178.16326324 421.67919067 -177.76402649 420.73338135 -177.35269165 419.75891113 C-171.34186607 405.52157131 -165.30486545 391.29551607 -159.25411987 377.07510376 C-153.52302125 363.60407979 -147.82843177 350.11802447 -142.15283203 336.62353516 C-141.48601069 335.03808254 -140.8191812 333.45263334 -140.15234375 331.8671875 C-139.81813416 331.07257111 -139.48392456 330.27795471 -139.1395874 329.45925903 C-132.99186045 314.84602837 -126.81729916 300.24409593 -120.64852905 285.63973999 C-117.81998893 278.94282938 -114.99354297 272.24503746 -112.16796875 265.546875 C-104.28806353 246.8691555 -96.39182848 228.1986561 -88.45544434 209.54486084 C-80.40208555 190.61415892 -72.40338138 171.66048598 -64.40722656 152.70556641 C-60.83528194 144.23870123 -57.26027619 135.77312857 -53.68548584 127.3074646 C-51.70686371 122.62169662 -49.72844205 117.93584401 -47.75 113.25 C-46.95833429 111.37499959 -46.16666763 109.49999959 -45.375 107.625 C-44.983125 106.696875 -44.59125 105.76875 -44.1875 104.8125 C-43 102 -41.8125 99.1875 -40.625 96.375 C-40.03729324 94.98306175 -40.03729324 94.98306175 -39.43771362 93.56300354 C-38.64533718 91.6863241 -37.85295843 89.80964564 -37.06057739 87.93296814 C-35.09225147 83.27117149 -33.12396444 78.60935843 -31.15576172 73.94750977 C-27.46413867 65.20371475 -23.7721212 56.46008687 -20.07879639 47.7170105 C-18.34462102 43.61169506 -16.61065716 39.50629031 -14.87670898 35.40087891 C-14.05438605 33.45405702 -13.23196082 31.50727833 -12.40942383 29.56054688 C-8.25010989 19.71646461 -4.09332199 9.87175769 0 0 Z " fill="#FDE37D" transform="translate(537,534)"/>
<path d="M0 0 C0 22.11 0 44.22 0 67 C-6.414375 67.12375 -12.82875 67.2475 -19.4375 67.375 C-77.06624108 67.44853393 -77.06624108 67.44853393 -128 91 C-132.51379951 96.48104227 -132.27611764 102.93022151 -131.66796875 109.69140625 C-129.39514705 126.66866445 -122.32900361 142.35248819 -114.01757812 157.16992188 C-102.32314008 178.20195344 -95.65298113 201.10118325 -101.625 225.1875 C-106.84514515 241.76054824 -116.8354732 251.98975376 -132 260 C-173.1548194 278.25165295 -226.58024684 259.80428838 -268.44561768 251.15206909 C-283.90610681 247.9629012 -299.33125755 244.99062761 -315 243 C-315.8859082 242.88720703 -316.77181641 242.77441406 -317.68457031 242.65820312 C-322.45202578 242.06116721 -327.22202437 241.50574672 -332 241 C-324.67651559 259.02869544 -314.80745149 274.62297074 -303.0078125 290.0390625 C-282.25867255 317.19542873 -262.39940979 345.70454894 -266.82373047 381.48779297 C-268.65566104 393.66999187 -272.72074481 405.98882095 -280 416 C-280.58394531 416.8146875 -281.16789062 417.629375 -281.76953125 418.46875 C-302.34502817 445.6233773 -335.66312997 456.48295887 -367 466 C-367.69927612 466.21251404 -368.39855225 466.42502808 -369.11901855 466.64398193 C-404.02641573 477.17071507 -439.93848046 484.25349873 -475.52757263 492.04544067 C-488.68329288 494.92584885 -488.68329288 494.92584885 -501.828125 497.85546875 C-502.64266647 498.03633026 -503.45720795 498.21719177 -504.2964325 498.40353394 C-511.64627813 500.06917057 -518.83125604 502.23598311 -526.0234375 504.4765625 C-530.19337476 505.7703417 -534.38723241 506.94647712 -538.59814453 508.09863281 C-581.78946125 520.00617666 -626.38336639 538.93525651 -663 565 C-663.66 564.67 -664.32 564.34 -665 564 C-648.24742138 540.04276336 -628.40311241 516.73743458 -605 499 C-603.72937153 498.00269844 -602.45993792 497.00387351 -601.19140625 496.00390625 C-586.53551166 484.52916261 -571.11362332 474.30411511 -555 465 C-554.12021484 464.48711426 -553.24042969 463.97422852 -552.33398438 463.44580078 C-527.86999047 449.23256488 -502.51604749 437.82745577 -476 428 C-474.78554199 427.5472168 -473.57108398 427.09443359 -472.31982422 426.62792969 C-449.49144661 418.1787055 -426.11682454 411.60702896 -402.66796875 405.13818359 C-390.93832239 401.89299993 -379.26309717 398.5622875 -367.70703125 394.73828125 C-366.26762932 394.26476227 -366.26762932 394.26476227 -364.79914856 393.78167725 C-353.94696612 390.11461871 -342.57812868 385.86719302 -336 376 C-334.15430122 370.46290366 -333.90773735 366.27678726 -336.43359375 361.01171875 C-338.51244285 357.58600967 -340.7012666 354.28043548 -343 351 C-343.37979004 350.45214844 -343.75958008 349.90429688 -344.15087891 349.33984375 C-347.04281265 345.18430074 -350.0139336 341.08820198 -353 337 C-390.11905738 286.17727778 -390.11905738 286.17727778 -398 256 C-398.33837891 254.77410156 -398.33837891 254.77410156 -398.68359375 253.5234375 C-401.90365288 239.53283578 -401.70132414 223.24370086 -396 210 C-395.566875 208.90751953 -395.566875 208.90751953 -395.125 207.79296875 C-389.48925249 195.03705809 -378.31926362 185.94458059 -365.92578125 180.09375 C-356.1148849 176.4261252 -345.45452811 174.35728699 -335 174 C-334.08089844 173.96003906 -333.16179687 173.92007813 -332.21484375 173.87890625 C-299.29822207 173.15686423 -266.09620976 181.69737448 -234.07595825 188.29360962 C-214.04709618 192.41946541 -214.04709618 192.41946541 -193.9375 196.125 C-192.87160645 196.31263916 -191.80571289 196.50027832 -190.70751953 196.69360352 C-183.49601234 197.9025811 -176.29555719 198.54003235 -169 199 C-169.47308594 198.11554199 -169.94617187 197.23108398 -170.43359375 196.31982422 C-189.08005032 161.34176087 -209.05387191 119.66950646 -197.3984375 79.0390625 C-188.79303123 52.60541543 -169.36577497 33.48939702 -145.06933594 21.02734375 C-125.66169221 11.3922134 -104.34367641 6.22963525 -83 3 C-82.01386719 2.84901855 -81.02773437 2.69803711 -80.01171875 2.54248047 C-53.4937226 -1.28413573 -26.71694754 -0.20342853 0 0 Z " fill="#FD8E00" transform="translate(1400,200)"/>
<path d="M0 0 C28.78225399 26.18340487 32.4350522 80.46947233 39.46166992 116.14916992 C39.81199028 117.92499451 39.81199028 117.92499451 40.16938782 119.73669434 C40.61278705 121.98745592 41.05434249 124.23858173 41.49382019 126.4901123 C41.79054375 127.99777161 41.79054375 127.99777161 42.09326172 129.53588867 C42.26534149 130.41580978 42.43742126 131.2957309 42.61471558 132.20231628 C43.09671751 134.60048481 43.09671751 134.60048481 44.10546875 137.44921875 C52.26627733 128.05140865 52.26627733 128.05140865 60.10546875 118.38671875 C65.10060225 112.09162223 70.56282699 106.25839363 76.10546875 100.44921875 C77.0190918 99.48459717 77.0190918 99.48459717 77.95117188 98.50048828 C101.70506006 73.55648921 131.00414108 54.29931165 166.4128418 52.9765625 C185.27937422 52.75981703 201.61222462 58.21173246 216.10546875 70.44921875 C216.97558594 71.10277344 216.97558594 71.10277344 217.86328125 71.76953125 C249.99070122 96.72431792 258.82132951 149.03984201 263.72851562 186.44287109 C263.85291016 187.43496582 263.97730469 188.42706055 264.10546875 189.44921875 C264.21439453 190.28791504 264.32332031 191.12661133 264.43554688 191.99072266 C265.49845658 201.54018589 265.10546875 210.69455095 265.10546875 220.44921875 C242.99546875 220.44921875 220.88546875 220.44921875 198.10546875 220.44921875 C197.11546875 209.88921875 196.12546875 199.32921875 195.10546875 188.44921875 C189.75823221 154.58371996 189.75823221 154.58371996 174.10546875 124.44921875 C174.10546875 123.78921875 174.10546875 123.12921875 174.10546875 122.44921875 C162.36186508 120.31401808 154.09221174 124.21950768 144.10546875 130.44921875 C131.69680071 139.17406347 120.64079423 150.84431391 111.27734375 162.70703125 C108.78865622 165.84922306 106.20634837 168.89991161 103.60546875 171.94921875 C100.23628016 175.90634671 96.92426487 179.89798597 93.66796875 183.94921875 C80.27844816 200.28253465 64.46614266 218.42754053 42.03271484 220.6550293 C39.92734545 220.75135824 37.83792977 220.77858808 35.73046875 220.76171875 C34.98659912 220.7560791 34.24272949 220.75043945 33.47631836 220.74462891 C20.89808902 220.46794347 11.14446724 215.48266689 1.98046875 206.94921875 C-19.07535749 184.87030378 -23.71595331 149.87902469 -29.27453613 121.1192627 C-30.28525572 115.90191851 -31.31224814 110.68774604 -32.33708191 105.47315979 C-32.87975353 102.71166484 -33.41818202 99.94939698 -33.95307922 97.18638611 C-34.19390732 95.94981766 -34.43473541 94.71324921 -34.68286133 93.43920898 C-34.99879997 91.80761086 -34.99879997 91.80761086 -35.32112122 90.14305115 C-35.85910188 87.36919637 -35.85910188 87.36919637 -36.89453125 84.44921875 C-37.54301025 85.79947144 -37.54301025 85.79947144 -38.20458984 87.17700195 C-55.36844701 122.88417684 -55.36844701 122.88417684 -62.89453125 136.44921875 C-63.44963379 137.45001465 -64.00473633 138.45081055 -64.57666016 139.48193359 C-72.30962197 153.33468289 -80.27793862 166.81480651 -89.89453125 179.44921875 C-90.63703125 180.4340625 -91.37953125 181.41890625 -92.14453125 182.43359375 C-105.51087265 199.43636627 -123.50770137 217.30310212 -145.89453125 220.44921875 C-166.25558265 222.05289601 -184.91570521 218.24502575 -201.33203125 205.44921875 C-202.86784257 204.13316579 -204.39023461 202.80118155 -205.89453125 201.44921875 C-206.49394531 200.94261719 -207.09335937 200.43601562 -207.7109375 199.9140625 C-225.02805596 184.20410121 -232.87873708 159.07749644 -234.89453125 136.44921875 C-234.89453125 131.16921875 -234.89453125 125.88921875 -234.89453125 120.44921875 C-212.78453125 120.44921875 -190.67453125 120.44921875 -167.89453125 120.44921875 C-166.90453125 127.37921875 -165.91453125 134.30921875 -164.89453125 141.44921875 C-162.01626324 150.08782392 -162.01626324 150.08782392 -157.89453125 152.44921875 C-154.08629692 152.19533646 -152.32998882 150.2431303 -149.83203125 147.51171875 C-143.4705378 140.18035827 -138.71898508 131.83813757 -133.89453125 123.44921875 C-133.47558594 122.7217041 -133.05664062 121.99418945 -132.625 121.24462891 C-129.63685605 116.02130585 -126.74514642 110.74869189 -123.89453125 105.44921875 C-123.48783203 104.69366699 -123.08113281 103.93811523 -122.66210938 103.15966797 C-117.04369152 92.66129046 -111.67653167 82.03984139 -106.3671875 71.3828125 C-105.87009781 70.38559174 -105.37300812 69.38837097 -104.8608551 68.3609314 C-102.34818929 63.31781313 -99.8412081 58.27198418 -97.34301758 53.22167969 C-92.88091506 44.22612684 -88.3569102 35.28189575 -83.4921875 26.49609375 C-83.10046356 25.78720505 -82.70873962 25.07831635 -82.30514526 24.34794617 C-73.69629333 9.01042772 -62.91228966 -6.64448207 -45.5390625 -12.3203125 C-28.59692784 -16.60421278 -12.9871713 -10.63073609 0 0 Z " fill="#F40056" transform="translate(1134.89453125,1179.55078125)"/>
<path d="M0 0 C0 22.11 0 44.22 0 67 C-5.28 67.99 -10.56 68.98 -16 70 C-22.52860423 72.35973647 -27.38734436 74.6701926 -31.10546875 80.83203125 C-33.40944649 86.41590744 -32.66830872 93.16119104 -30.5 98.6875 C-26.09665446 107.04401831 -18.70448157 112.27548322 -10.6875 116.875 C-9.82157227 117.38401855 -8.95564453 117.89303711 -8.06347656 118.41748047 C-2.21175995 121.82302247 3.73812468 125.01315206 9.75 128.125 C32.27566057 139.79492054 55.98731112 154.51101397 64.39453125 179.93359375 C68.69361765 194.58851029 68.53307877 209.09528508 61.52734375 222.90234375 C47.34780807 246.8030741 19.13459106 257.73317775 -4.86474609 269.0703125 C-19.22226248 275.77753515 -19.22226248 275.77753515 -32 285 C-32.33 285.99 -32.66 286.98 -33 288 C-6.64064227 298.9425378 23.1740927 298.63129253 51.26977539 299.33813477 C76.47163209 299.98769183 101.70521667 303.77299841 120 323 C130.61863208 335.92413884 135.15368097 349.83461182 133.52734375 366.5 C131.05389901 382.91634435 122.92512421 396.7818508 112 409 C111.27941406 409.84046875 110.55882812 410.6809375 109.81640625 411.546875 C73.72673114 452.97602076 17.1027407 476.31100021 -33.125 495.3125 C-33.89440918 495.60874268 -34.66381836 495.90498535 -35.45654297 496.21020508 C-40.64252377 498.11915874 -40.64252377 498.11915874 -44 497 C-45.06861877 494.90130615 -45.06861877 494.90130615 -46.05297852 492.10058594 C-46.42669083 491.05570007 -46.80040314 490.01081421 -47.18544006 488.93426514 C-47.57928391 487.79580139 -47.97312775 486.65733765 -48.37890625 485.484375 C-48.99801125 483.7396994 -48.99801125 483.7396994 -49.62962341 481.95977783 C-50.72715768 478.86070792 -51.81457716 475.75833157 -52.89709473 472.6539917 C-53.99583842 469.51004476 -55.10685552 466.37048034 -56.21679688 463.23046875 C-57.46633933 459.69551839 -58.71425581 456.16009337 -59.95350647 452.621521 C-60.32406662 451.56402649 -60.69462677 450.50653198 -61.07641602 449.41699219 C-61.40045914 448.48957214 -61.72450226 447.5621521 -62.05836487 446.60662842 C-62.7003205 444.8295709 -63.38977398 443.0691324 -64.11953735 441.32629395 C-65.25050225 438.33814129 -65.25983854 436.94378114 -64 434 C-61.3581543 432.47363281 -61.3581543 432.47363281 -57.82421875 431.203125 C-56.87543602 430.85091637 -56.87543602 430.85091637 -55.90748596 430.49159241 C-54.54788294 429.98884278 -53.1849608 429.49499737 -51.81921387 429.00918579 C-48.23782475 427.73371455 -44.68146368 426.39136274 -41.12109375 425.05859375 C-40.06180161 424.66519051 -40.06180161 424.66519051 -38.98110962 424.26383972 C-30.8991161 421.24917841 -23.07296203 417.73558174 -15.27099609 414.06347656 C-12.95576331 412.97928456 -10.62969711 411.92162739 -8.30078125 410.8671875 C15.42387706 400.02323619 39.48488218 386.64301894 58 368 C57.05084717 367.98018066 56.10169434 367.96036133 55.1237793 367.93994141 C-45.39088377 365.77625189 -45.39088377 365.77625189 -78 338 C-78.65097656 337.46117187 -79.30195313 336.92234375 -79.97265625 336.3671875 C-91.64893257 325.78140623 -99.13074087 309.24663443 -100.15527344 293.63378906 C-101.10182506 272.0977839 -97.53522263 256.39567446 -82.875 239.9375 C-63.61415387 219.2715973 -35.91046244 208.24492989 -11 196 C-11 195.34 -11 194.68 -11 194 C-11.66306152 193.66379639 -12.32612305 193.32759277 -13.00927734 192.98120117 C-47.58098121 175.39077903 -82.18961756 156.5501735 -96 118 C-103.14454153 95.8631725 -102.48831179 70.57162428 -92.25 49.5625 C-88.89165325 43.07757862 -84.94788314 37.39253039 -80 32 C-79.33613281 31.24460938 -78.67226562 30.48921875 -77.98828125 29.7109375 C-71.84657921 23.103783 -64.7351368 18.50719197 -57 14 C-56.05511719 13.443125 -55.11023438 12.88625 -54.13671875 12.3125 C-37.46485395 3.25734288 -18.72887838 0 0 0 Z " fill="#FD8E00" transform="translate(300,200)"/>
<path d="M0 0 C1.17526087 3.52578262 0.73128585 4.38703474 -0.41015625 7.82421875 C-2.33796134 14.52259913 -2.49592683 20.87593716 -2.4375 27.8125 C-2.42992676 29.08279053 -2.42235352 30.35308105 -2.41455078 31.66186523 C-1.77167005 68.99821979 14.04997133 105.82745336 32.28125 137.8515625 C32.80090332 138.76470215 33.32055664 139.6778418 33.85595703 140.61865234 C34.84396577 142.33012104 35.84934452 144.03171854 36.87451172 145.72119141 C37.31553223 146.47835449 37.75655273 147.23551758 38.2109375 148.015625 C38.60587402 148.66821289 39.00081055 149.32080078 39.40771484 149.99316406 C40.49985055 153.69364037 38.27905237 156.47563102 36.55810547 159.70947266 C36.00010254 160.6844873 35.44209961 161.65950195 34.8671875 162.6640625 C34.23417725 163.77217285 33.60116699 164.8802832 32.94897461 166.02197266 C32.25785491 167.22309985 31.5665243 168.4241057 30.875 169.625 C30.1556352 170.87936865 29.4363163 172.13376362 28.71704102 173.38818359 C23.21111605 182.97234313 17.59207114 192.48690865 11.9375 201.98413086 C6.71788625 210.75903192 1.59597007 219.58698359 -3.49414062 228.4375 C-9.37442866 238.66139385 -15.31518138 248.84933435 -21.26611328 259.03222656 C-24.1801084 264.01990957 -27.08982568 269.01008705 -30 274 C-31.16664643 276.0000118 -32.33331309 278.00001181 -33.5 280 C-34.0775 280.99 -34.655 281.98 -35.25 283 C-93 382 -150.75 481 -306.5 748 C-307.07838623 748.99169189 -307.65677246 749.98338379 -308.25268555 751.00512695 C-309.40979227 752.98839203 -310.567499 754.97130718 -311.72583008 756.95385742 C-314.79398729 762.20706524 -317.84895787 767.46742927 -320.88671875 772.73828125 C-321.84094727 774.38860352 -321.84094727 774.38860352 -322.81445312 776.07226562 C-324.03703486 778.18724278 -325.25595638 780.3043412 -326.47070312 782.42382812 C-327.02048828 783.37322266 -327.57027344 784.32261719 -328.13671875 785.30078125 C-328.61842529 786.13778564 -329.10013184 786.97479004 -329.59643555 787.8371582 C-330.90310577 789.85068952 -332.23363122 791.38705819 -334 793 C-333.3027309 788.01189237 -331.31191759 783.66528441 -329.34375 779.07421875 C-328.96992188 778.19184036 -328.59609375 777.30946198 -328.2109375 776.40034485 C-326.97841473 773.49414812 -325.73921902 770.59084696 -324.5 767.6875 C-323.63303489 765.64666642 -322.76650409 763.60564829 -321.90039062 761.56445312 C-319.69062684 756.35955527 -317.47552831 751.15694732 -315.25878906 745.95501709 C-313.37813931 741.5401772 -311.501416 737.12367187 -309.625 732.70703125 C-307.55533197 727.83608202 -305.48540548 722.96524443 -303.41357422 718.09521484 C-295.70842062 699.98069401 -288.05848245 681.84290157 -280.40722656 663.70556641 C-276.83528194 655.23870123 -273.26027619 646.77312857 -269.68548584 638.3074646 C-267.70686371 633.62169662 -265.72844205 628.93584401 -263.75 624.25 C-262.95833429 622.37499959 -262.16666763 620.49999959 -261.375 618.625 C-260.983125 617.696875 -260.59125 616.76875 -260.1875 615.8125 C-256.625 607.37499999 -256.625 607.37499999 -255.43753052 604.56257629 C-254.64575829 602.6873236 -253.8539899 600.81206929 -253.06222534 598.93681335 C-251.08470522 594.25316627 -249.10711872 589.56954724 -247.12939453 584.88598633 C-243.5471846 576.40256927 -239.96547729 567.91894169 -236.38621521 559.4342804 C-228.38484149 540.46710549 -220.37253396 521.50483208 -212.3125 502.5625 C-206.89180427 489.82289671 -201.49317006 477.07432866 -196.125 464.3125 C-195.8010022 463.54227509 -195.47700439 462.77205017 -195.14318848 461.97848511 C-194.4831581 460.40937056 -193.82313415 458.84025331 -193.16311646 457.27113342 C-192.66665115 456.09084816 -192.66665115 456.09084816 -192.16015625 454.88671875 C-191.82635956 454.09313461 -191.49256287 453.29955048 -191.14865112 452.48191833 C-186.96052622 442.52655068 -182.76274786 432.57525806 -178.5625 422.625 C-178.16326324 421.67919067 -177.76402649 420.73338135 -177.35269165 419.75891113 C-171.34186607 405.52157131 -165.30486545 391.29551607 -159.25411987 377.07510376 C-153.52302125 363.60407979 -147.82843177 350.11802447 -142.15283203 336.62353516 C-141.48601069 335.03808254 -140.8191812 333.45263334 -140.15234375 331.8671875 C-139.81813416 331.07257111 -139.48392456 330.27795471 -139.1395874 329.45925903 C-132.99186045 314.84602837 -126.81729916 300.24409593 -120.64852905 285.63973999 C-117.81998893 278.94282938 -114.99354297 272.24503746 -112.16796875 265.546875 C-104.28806353 246.8691555 -96.39182848 228.1986561 -88.45544434 209.54486084 C-80.40208555 190.61415892 -72.40338138 171.66048598 -64.40722656 152.70556641 C-60.83528194 144.23870123 -57.26027619 135.77312857 -53.68548584 127.3074646 C-51.70686371 122.62169662 -49.72844205 117.93584401 -47.75 113.25 C-46.95833429 111.37499959 -46.16666763 109.49999959 -45.375 107.625 C-44.983125 106.696875 -44.59125 105.76875 -44.1875 104.8125 C-43 102 -41.8125 99.1875 -40.625 96.375 C-40.03729324 94.98306175 -40.03729324 94.98306175 -39.43771362 93.56300354 C-38.64533718 91.6863241 -37.85295843 89.80964564 -37.06057739 87.93296814 C-35.09225147 83.27117149 -33.12396444 78.60935843 -31.15576172 73.94750977 C-27.46413867 65.20371475 -23.7721212 56.46008687 -20.07879639 47.7170105 C-18.34462102 43.61169506 -16.61065716 39.50629031 -14.87670898 35.40087891 C-14.05438605 33.45405702 -13.23196082 31.50727833 -12.40942383 29.56054688 C-8.25010989 19.71646461 -4.09332199 9.87175769 0 0 Z " fill="#FDB100" transform="translate(537,534)"/>
<path d="M0 0 C81.88495636 -1.92143034 174.75470299 15.95084043 236.37988281 73.06640625 C243.76464854 80.34788854 249.77282751 88.38857112 255.37988281 97.06640625 C256.30607422 98.48179687 256.30607422 98.48179687 257.25097656 99.92578125 C270.24049407 120.8710166 274.37988281 143.72919974 274.37988281 168.06640625 C252.26988281 168.06640625 230.15988281 168.06640625 207.37988281 168.06640625 C206.38988281 161.79640625 205.39988281 155.52640625 204.37988281 149.06640625 C202.86067714 144.67758987 201.51022725 141.0819596 199.37988281 137.06640625 C198.65865234 135.70515625 198.65865234 135.70515625 197.92285156 134.31640625 C190.10841317 120.93109085 178.47361915 111.87883375 165.37988281 104.06640625 C164.49308838 103.53321777 164.49308838 103.53321777 163.58837891 102.98925781 C113.95950923 73.64995933 49.46985004 68.37493513 -6.95874405 68.73999405 C-9.35249258 68.75417204 -11.74620463 68.76279853 -14.13998413 68.76986694 C-38.82375228 68.84644482 -63.44442249 69.34115728 -88.0836792 70.90820312 C-90.70884965 71.07194069 -93.33446841 71.22484553 -95.96044922 71.375 C-158.8795724 74.98874697 -225.96541311 80.28869147 -286.31152344 99.5 C-288.62011719 100.06640625 -288.62011719 100.06640625 -290.62011719 99.06640625 C-253.78198595 63.12082885 -200.77196994 38.34575695 -151.92871094 23.76123047 C-149.41470213 23.00458188 -146.9084875 22.22446654 -144.40136719 21.4453125 C-97.50891748 7.08568899 -48.8959286 1.23925574 0 0 Z " fill="#1874D0" transform="translate(1125.6201171875,765.93359375)"/>
<path d="M0 0 C55.46953746 0.36261674 108.12072155 20.5945659 148.06860352 59.12182617 C150.55410033 61.68144317 152.83552055 64.34035336 155.06860352 67.12182617 C155.83688477 68.06413086 156.60516602 69.00643555 157.39672852 69.97729492 C179.1110223 97.07167393 191.34930952 129.9037299 196.06860352 164.12182617 C196.18429687 164.94328125 196.29999023 165.76473633 196.41918945 166.61108398 C205.21464879 232.25078794 187.57155359 298.95938864 147.47802734 351.49926758 C146.01753261 353.3809908 144.54576591 355.2531698 143.06860352 357.12182617 C142.25649414 358.15952148 141.44438477 359.1972168 140.60766602 360.26635742 C134.66452066 367.56873949 128.13696251 374.2547748 121.50610352 380.93432617 C120.63155518 381.81822021 119.75700684 382.70211426 118.85595703 383.61279297 C103.27093497 399.12182617 103.27093497 399.12182617 98.06860352 399.12182617 C98.2492334 398.60612061 98.42986328 398.09041504 98.6159668 397.55908203 C123.34565619 326.45536675 144.52351326 225.56068929 117.06860352 133.12182617 C112.97137602 124.81605675 108.06886334 117.18879885 102.06860352 110.12182617 C101.48852539 109.39737305 100.90844727 108.67291992 100.31079102 107.92651367 C85.78734317 90.48622275 63.66246233 79.88747679 42.06860352 74.12182617 C41.33528809 73.92508301 40.60197266 73.72833984 39.84643555 73.52563477 C26.7799272 70.14876879 13.61754985 69.13020081 0.17553711 68.35546875 C-1.93139648 68.12182617 -1.93139648 68.12182617 -2.93139648 67.12182617 C-3.03079274 65.07169771 -3.05939201 63.01811226 -3.06079102 60.96557617 C-3.06394318 59.64750977 -3.06709534 58.32944336 -3.07034302 56.97143555 C-3.06855324 55.52156542 -3.06650229 54.07169559 -3.06420898 52.62182617 C-3.06488206 51.14591455 -3.06585211 49.67000304 -3.06710815 48.1940918 C-3.06858496 45.09707588 -3.06643112 42.00008875 -3.06176758 38.90307617 C-3.05607029 34.92474069 -3.05934939 30.94647266 -3.06534004 26.96813965 C-3.06894612 23.919347 -3.06780686 20.87057046 -3.06521225 17.82177734 C-3.06454311 16.35449211 -3.06537096 14.88720543 -3.0676918 13.41992188 C-3.07021905 11.37264024 -3.06568709 9.32535351 -3.06079102 7.27807617 C-3.05999542 6.11083008 -3.05919983 4.94358398 -3.05838013 3.7409668 C-2.88583235 0.18202886 -2.88583235 0.18202886 0 0 Z " fill="#F30055" transform="translate(568.931396484375,265.878173828125)"/>
<path d="M0 0 C4.29505763 1.65604887 7.16153042 4.89548306 10.32910156 8.10205078 C10.95391418 8.72657135 11.57872681 9.35109192 12.22247314 9.99453735 C14.28330069 12.0567565 16.33695653 14.1259659 18.390625 16.1953125 C19.81936725 17.62778547 21.24855215 19.05981707 22.67816162 20.49142456 C26.43742017 24.25831484 30.19063357 28.03117293 33.94262695 31.80529785 C37.77322817 35.65636731 41.60950595 39.50177271 45.4453125 43.34765625 C52.96911378 50.89289934 60.48654202 58.44445811 68 66 C64.12207556 70.63854557 60.09963668 75.04246978 55.81103516 79.30249023 C55.22494476 79.88872665 54.63885437 80.47496307 54.03500366 81.07896423 C52.12205396 82.99122444 50.20560087 84.89993086 48.2890625 86.80859375 C46.95220405 88.14358459 45.61556808 89.47879827 44.27914429 90.81422424 C40.77974021 94.30983017 37.2773423 97.80242114 33.77429199 101.29437256 C30.19275135 104.8656407 26.61407844 108.43978002 23.03515625 112.01367188 C16.0262261 119.01191241 9.01412676 126.00696815 2 133 C-2.29505763 131.34395113 -5.16153042 128.10451694 -8.32910156 124.89794922 C-8.95391418 124.27342865 -9.57872681 123.64890808 -10.22247314 123.00546265 C-12.28330069 120.9432435 -14.33695653 118.8740341 -16.390625 116.8046875 C-17.81936725 115.37221453 -19.24855215 113.94018293 -20.67816162 112.50857544 C-24.43742017 108.74168516 -28.19063357 104.96882707 -31.94262695 101.19470215 C-35.77322817 97.34363269 -39.60950595 93.49822729 -43.4453125 89.65234375 C-50.96911378 82.10710066 -58.48654202 74.55554189 -66 67 C-62.12207556 62.36145443 -58.09963668 57.95753022 -53.81103516 53.69750977 C-53.22494476 53.11127335 -52.63885437 52.52503693 -52.03500366 51.92103577 C-50.12205396 50.00877556 -48.20560087 48.10006914 -46.2890625 46.19140625 C-44.95220405 44.85641541 -43.61556808 43.52120173 -42.27914429 42.18577576 C-38.77974021 38.69016983 -35.2773423 35.19757886 -31.77429199 31.70562744 C-28.19275135 28.1343593 -24.61407844 24.56021998 -21.03515625 20.98632812 C-14.0262261 13.98808759 -7.01412676 6.99303185 0 0 Z " fill="#F40056" transform="translate(799,1167)"/>
<path d="M0 0 C4.63854557 3.87792444 9.04246978 7.90036332 13.30249023 12.18896484 C14.18184486 13.06810043 14.18184486 13.06810043 15.07896423 13.96499634 C16.99122444 15.87794604 18.89993086 17.79439913 20.80859375 19.7109375 C22.14358459 21.04779595 23.47879827 22.38443192 24.81422424 23.72085571 C28.30983017 27.22025979 31.80242114 30.7226577 35.29437256 34.22570801 C38.8656407 37.80724865 42.43978002 41.38592156 46.01367188 44.96484375 C53.01191241 51.9737739 60.00696815 58.98587324 67 66 C65.34395113 70.29505763 62.10451694 73.16153042 58.89794922 76.32910156 C58.27342865 76.95391418 57.64890808 77.57872681 57.00546265 78.22247314 C54.9432435 80.28330069 52.8740341 82.33695653 50.8046875 84.390625 C49.37221453 85.81936725 47.94018293 87.24855215 46.50857544 88.67816162 C42.74168516 92.43742017 38.96882707 96.19063357 35.19470215 99.94262695 C31.34363269 103.77322817 27.49822729 107.60950595 23.65234375 111.4453125 C16.10710066 118.96911378 8.55554189 126.48654202 1 134 C-3.63854557 130.12207556 -8.04246978 126.09963668 -12.30249023 121.81103516 C-12.88872665 121.22494476 -13.47496307 120.63885437 -14.07896423 120.03500366 C-15.99122444 118.12205396 -17.89993086 116.20560087 -19.80859375 114.2890625 C-21.14358459 112.95220405 -22.47879827 111.61556808 -23.81422424 110.27914429 C-27.30983017 106.77974021 -30.80242114 103.2773423 -34.29437256 99.77429199 C-37.8656407 96.19275135 -41.43978002 92.61407844 -45.01367188 89.03515625 C-52.01191241 82.0262261 -59.00696815 75.01412676 -66 68 C-64.34395113 63.70494237 -61.10451694 60.83846958 -57.89794922 57.67089844 C-57.27342865 57.04608582 -56.64890808 56.42127319 -56.00546265 55.77752686 C-53.9432435 53.71669931 -51.8740341 51.66304347 -49.8046875 49.609375 C-48.37221453 48.18063275 -46.94018293 46.75144785 -45.50857544 45.32183838 C-41.74168516 41.56257983 -37.96882707 37.80936643 -34.19470215 34.05737305 C-30.34363269 30.22677183 -26.49822729 26.39049405 -22.65234375 22.5546875 C-15.10710066 15.03088622 -7.55554189 7.51345798 0 0 Z " fill="#FD8E00" transform="translate(1333,1033)"/>
<path d="M0 0 C3.65881177 1.53956134 5.9829179 3.74089057 8.76855469 6.54150391 C9.45705757 7.22956871 9.45705757 7.22956871 10.1594696 7.93153381 C11.66839675 9.4418491 13.17012454 10.95911388 14.671875 12.4765625 C15.71947224 13.5278917 16.76751328 14.57877885 17.815979 15.62924194 C20.5691252 18.39001016 23.31621127 21.15673249 26.06207275 23.92474365 C28.86716916 26.75032928 31.67796321 29.57023445 34.48828125 32.390625 C39.99777532 37.92154374 45.50087877 43.45876589 51 49 C49.46043866 52.65881177 47.25910943 54.9829179 44.45849609 57.76855469 C43.99978622 58.22755661 43.54107635 58.68655853 43.06846619 59.1594696 C41.5581509 60.66839675 40.04088612 62.17012454 38.5234375 63.671875 C37.4721083 64.71947224 36.42122115 65.76751328 35.37075806 66.815979 C32.60998984 69.5691252 29.84326751 72.31621127 27.07525635 75.06207275 C24.24967072 77.86716916 21.42976555 80.67796321 18.609375 83.48828125 C13.07845626 88.99777532 7.54123411 94.50087877 2 100 C-1.65881177 98.46043866 -3.9829179 96.25910943 -6.76855469 93.45849609 C-7.22755661 92.99978622 -7.68655853 92.54107635 -8.1594696 92.06846619 C-9.66839675 90.5581509 -11.17012454 89.04088612 -12.671875 87.5234375 C-13.71947224 86.4721083 -14.76751328 85.42122115 -15.815979 84.37075806 C-18.5691252 81.60998984 -21.31621127 78.84326751 -24.06207275 76.07525635 C-26.86716916 73.24967072 -29.67796321 70.42976555 -32.48828125 67.609375 C-37.99777532 62.07845626 -43.50087877 56.54123411 -49 51 C-47.46043866 47.34118823 -45.25910943 45.0170821 -42.45849609 42.23144531 C-41.77043129 41.54294243 -41.77043129 41.54294243 -41.06846619 40.8405304 C-39.5581509 39.33160325 -38.04088612 37.82987546 -36.5234375 36.328125 C-35.4721083 35.28052776 -34.42122115 34.23248672 -33.37075806 33.184021 C-30.60998984 30.4308748 -27.84326751 27.68378873 -25.07525635 24.93792725 C-22.24967072 22.13283084 -19.42976555 19.32203679 -16.609375 16.51171875 C-11.07845626 11.00222468 -5.54123411 5.49912123 0 0 Z " fill="#1875D1" transform="translate(549,1300)"/>
<path d="M0 0 C3.65881177 1.53956134 5.9829179 3.74089057 8.76855469 6.54150391 C9.45705757 7.22956871 9.45705757 7.22956871 10.1594696 7.93153381 C11.66839675 9.4418491 13.17012454 10.95911388 14.671875 12.4765625 C15.71947224 13.5278917 16.76751328 14.57877885 17.815979 15.62924194 C20.5691252 18.39001016 23.31621127 21.15673249 26.06207275 23.92474365 C28.86716916 26.75032928 31.67796321 29.57023445 34.48828125 32.390625 C39.99777532 37.92154374 45.50087877 43.45876589 51 49 C49.46043866 52.65881177 47.25910943 54.9829179 44.45849609 57.76855469 C43.99978622 58.22755661 43.54107635 58.68655853 43.06846619 59.1594696 C41.5581509 60.66839675 40.04088612 62.17012454 38.5234375 63.671875 C37.4721083 64.71947224 36.42122115 65.76751328 35.37075806 66.815979 C32.60998984 69.5691252 29.84326751 72.31621127 27.07525635 75.06207275 C24.24967072 77.86716916 21.42976555 80.67796321 18.609375 83.48828125 C13.07845626 88.99777532 7.54123411 94.50087877 2 100 C-1.65881177 98.46043866 -3.9829179 96.25910943 -6.76855469 93.45849609 C-7.22755661 92.99978622 -7.68655853 92.54107635 -8.1594696 92.06846619 C-9.66839675 90.5581509 -11.17012454 89.04088612 -12.671875 87.5234375 C-13.71947224 86.4721083 -14.76751328 85.42122115 -15.815979 84.37075806 C-18.5691252 81.60998984 -21.31621127 78.84326751 -24.06207275 76.07525635 C-26.86716916 73.24967072 -29.67796321 70.42976555 -32.48828125 67.609375 C-37.99777532 62.07845626 -43.50087877 56.54123411 -49 51 C-47.46043866 47.34118823 -45.25910943 45.0170821 -42.45849609 42.23144531 C-41.77043129 41.54294243 -41.77043129 41.54294243 -41.06846619 40.8405304 C-39.5581509 39.33160325 -38.04088612 37.82987546 -36.5234375 36.328125 C-35.4721083 35.28052776 -34.42122115 34.23248672 -33.37075806 33.184021 C-30.60998984 30.4308748 -27.84326751 27.68378873 -25.07525635 24.93792725 C-22.24967072 22.13283084 -19.42976555 19.32203679 -16.609375 16.51171875 C-11.07845626 11.00222468 -5.54123411 5.49912123 0 0 Z " fill="#1875D1" transform="translate(249,800)"/>
<path d="M0 0 C3.65881177 1.53956134 5.9829179 3.74089057 8.76855469 6.54150391 C9.45705757 7.22956871 9.45705757 7.22956871 10.1594696 7.93153381 C11.66839675 9.4418491 13.17012454 10.95911388 14.671875 12.4765625 C15.71947224 13.5278917 16.76751328 14.57877885 17.815979 15.62924194 C20.5691252 18.39001016 23.31621127 21.15673249 26.06207275 23.92474365 C28.86716916 26.75032928 31.67796321 29.57023445 34.48828125 32.390625 C39.99777532 37.92154374 45.50087877 43.45876589 51 49 C49.46043866 52.65881177 47.25910943 54.9829179 44.45849609 57.76855469 C43.99978622 58.22755661 43.54107635 58.68655853 43.06846619 59.1594696 C41.5581509 60.66839675 40.04088612 62.17012454 38.5234375 63.671875 C37.4721083 64.71947224 36.42122115 65.76751328 35.37075806 66.815979 C32.60998984 69.5691252 29.84326751 72.31621127 27.07525635 75.06207275 C24.24967072 77.86716916 21.42976555 80.67796321 18.609375 83.48828125 C13.07845626 88.99777532 7.54123411 94.50087877 2 100 C-1.65881177 98.46043866 -3.9829179 96.25910943 -6.76855469 93.45849609 C-7.22755661 92.99978622 -7.68655853 92.54107635 -8.1594696 92.06846619 C-9.66839675 90.5581509 -11.17012454 89.04088612 -12.671875 87.5234375 C-13.71947224 86.4721083 -14.76751328 85.42122115 -15.815979 84.37075806 C-18.5691252 81.60998984 -21.31621127 78.84326751 -24.06207275 76.07525635 C-26.86716916 73.24967072 -29.67796321 70.42976555 -32.48828125 67.609375 C-37.99777532 62.07845626 -43.50087877 56.54123411 -49 51 C-47.46043866 47.34118823 -45.25910943 45.0170821 -42.45849609 42.23144531 C-41.77043129 41.54294243 -41.77043129 41.54294243 -41.06846619 40.8405304 C-39.5581509 39.33160325 -38.04088612 37.82987546 -36.5234375 36.328125 C-35.4721083 35.28052776 -34.42122115 34.23248672 -33.37075806 33.184021 C-30.60998984 30.4308748 -27.84326751 27.68378873 -25.07525635 24.93792725 C-22.24967072 22.13283084 -19.42976555 19.32203679 -16.609375 16.51171875 C-11.07845626 11.00222468 -5.54123411 5.49912123 0 0 Z " fill="#F40056" transform="translate(1349,567)"/>
<path d="M0 0 C3.65881177 1.53956134 5.9829179 3.74089057 8.76855469 6.54150391 C9.45705757 7.22956871 9.45705757 7.22956871 10.1594696 7.93153381 C11.66839675 9.4418491 13.17012454 10.95911388 14.671875 12.4765625 C15.71947224 13.5278917 16.76751328 14.57877885 17.815979 15.62924194 C20.5691252 18.39001016 23.31621127 21.15673249 26.06207275 23.92474365 C28.86716916 26.75032928 31.67796321 29.57023445 34.48828125 32.390625 C39.99777532 37.92154374 45.50087877 43.45876589 51 49 C49.46043866 52.65881177 47.25910943 54.9829179 44.45849609 57.76855469 C43.99978622 58.22755661 43.54107635 58.68655853 43.06846619 59.1594696 C41.5581509 60.66839675 40.04088612 62.17012454 38.5234375 63.671875 C37.4721083 64.71947224 36.42122115 65.76751328 35.37075806 66.815979 C32.60998984 69.5691252 29.84326751 72.31621127 27.07525635 75.06207275 C24.24967072 77.86716916 21.42976555 80.67796321 18.609375 83.48828125 C13.07845626 88.99777532 7.54123411 94.50087877 2 100 C-1.65881177 98.46043866 -3.9829179 96.25910943 -6.76855469 93.45849609 C-7.22755661 92.99978622 -7.68655853 92.54107635 -8.1594696 92.06846619 C-9.66839675 90.5581509 -11.17012454 89.04088612 -12.671875 87.5234375 C-13.71947224 86.4721083 -14.76751328 85.42122115 -15.815979 84.37075806 C-18.5691252 81.60998984 -21.31621127 78.84326751 -24.06207275 76.07525635 C-26.86716916 73.24967072 -29.67796321 70.42976555 -32.48828125 67.609375 C-37.99777532 62.07845626 -43.50087877 56.54123411 -49 51 C-47.46043866 47.34118823 -45.25910943 45.0170821 -42.45849609 42.23144531 C-41.77043129 41.54294243 -41.77043129 41.54294243 -41.06846619 40.8405304 C-39.5581509 39.33160325 -38.04088612 37.82987546 -36.5234375 36.328125 C-35.4721083 35.28052776 -34.42122115 34.23248672 -33.37075806 33.184021 C-30.60998984 30.4308748 -27.84326751 27.68378873 -25.07525635 24.93792725 C-22.24967072 22.13283084 -19.42976555 19.32203679 -16.609375 16.51171875 C-11.07845626 11.00222468 -5.54123411 5.49912123 0 0 Z " fill="#FD8E00" transform="translate(882,400)"/>
<path d="M0 0 C3.65881177 1.53956134 5.9829179 3.74089057 8.76855469 6.54150391 C9.45705757 7.22956871 9.45705757 7.22956871 10.1594696 7.93153381 C11.66839675 9.4418491 13.17012454 10.95911388 14.671875 12.4765625 C15.71947224 13.5278917 16.76751328 14.57877885 17.815979 15.62924194 C20.5691252 18.39001016 23.31621127 21.15673249 26.06207275 23.92474365 C28.86716916 26.75032928 31.67796321 29.57023445 34.48828125 32.390625 C39.99777532 37.92154374 45.50087877 43.45876589 51 49 C49.46043866 52.65881177 47.25910943 54.9829179 44.45849609 57.76855469 C43.99978622 58.22755661 43.54107635 58.68655853 43.06846619 59.1594696 C41.5581509 60.66839675 40.04088612 62.17012454 38.5234375 63.671875 C37.4721083 64.71947224 36.42122115 65.76751328 35.37075806 66.815979 C32.60998984 69.5691252 29.84326751 72.31621127 27.07525635 75.06207275 C24.24967072 77.86716916 21.42976555 80.67796321 18.609375 83.48828125 C13.07845626 88.99777532 7.54123411 94.50087877 2 100 C-1.65881177 98.46043866 -3.9829179 96.25910943 -6.76855469 93.45849609 C-7.22755661 92.99978622 -7.68655853 92.54107635 -8.1594696 92.06846619 C-9.66839675 90.5581509 -11.17012454 89.04088612 -12.671875 87.5234375 C-13.71947224 86.4721083 -14.76751328 85.42122115 -15.815979 84.37075806 C-18.5691252 81.60998984 -21.31621127 78.84326751 -24.06207275 76.07525635 C-26.86716916 73.24967072 -29.67796321 70.42976555 -32.48828125 67.609375 C-37.99777532 62.07845626 -43.50087877 56.54123411 -49 51 C-47.46043866 47.34118823 -45.25910943 45.0170821 -42.45849609 42.23144531 C-41.77043129 41.54294243 -41.77043129 41.54294243 -41.06846619 40.8405304 C-39.5581509 39.33160325 -38.04088612 37.82987546 -36.5234375 36.328125 C-35.4721083 35.28052776 -34.42122115 34.23248672 -33.37075806 33.184021 C-30.60998984 30.4308748 -27.84326751 27.68378873 -25.07525635 24.93792725 C-22.24967072 22.13283084 -19.42976555 19.32203679 -16.609375 16.51171875 C-11.07845626 11.00222468 -5.54123411 5.49912123 0 0 Z " fill="#1875D1" transform="translate(816,200)"/>
<path d="M0 0 C3.65881177 1.53956134 5.9829179 3.74089057 8.76855469 6.54150391 C9.45705757 7.22956871 9.45705757 7.22956871 10.1594696 7.93153381 C11.66839675 9.4418491 13.17012454 10.95911388 14.671875 12.4765625 C15.71947224 13.5278917 16.76751328 14.57877885 17.815979 15.62924194 C20.5691252 18.39001016 23.31621127 21.15673249 26.06207275 23.92474365 C28.86716916 26.75032928 31.67796321 29.57023445 34.48828125 32.390625 C39.99777532 37.92154374 45.50087877 43.45876589 51 49 C49.46043866 52.65881177 47.25910943 54.9829179 44.45849609 57.76855469 C43.99978622 58.22755661 43.54107635 58.68655853 43.06846619 59.1594696 C41.5581509 60.66839675 40.04088612 62.17012454 38.5234375 63.671875 C37.4721083 64.71947224 36.42122115 65.76751328 35.37075806 66.815979 C32.60998984 69.5691252 29.84326751 72.31621127 27.07525635 75.06207275 C24.24967072 77.86716916 21.42976555 80.67796321 18.609375 83.48828125 C13.07845626 88.99777532 7.54123411 94.50087877 2 100 C-1.65881177 98.46043866 -3.9829179 96.25910943 -6.76855469 93.45849609 C-7.22755661 92.99978622 -7.68655853 92.54107635 -8.1594696 92.06846619 C-9.66839675 90.5581509 -11.17012454 89.04088612 -12.671875 87.5234375 C-13.71947224 86.4721083 -14.76751328 85.42122115 -15.815979 84.37075806 C-18.5691252 81.60998984 -21.31621127 78.84326751 -24.06207275 76.07525635 C-26.86716916 73.24967072 -29.67796321 70.42976555 -32.48828125 67.609375 C-37.99777532 62.07845626 -43.50087877 56.54123411 -49 51 C-47.46043866 47.34118823 -45.25910943 45.0170821 -42.45849609 42.23144531 C-41.77043129 41.54294243 -41.77043129 41.54294243 -41.06846619 40.8405304 C-39.5581509 39.33160325 -38.04088612 37.82987546 -36.5234375 36.328125 C-35.4721083 35.28052776 -34.42122115 34.23248672 -33.37075806 33.184021 C-30.60998984 30.4308748 -27.84326751 27.68378873 -25.07525635 24.93792725 C-22.24967072 22.13283084 -19.42976555 19.32203679 -16.609375 16.51171875 C-11.07845626 11.00222468 -5.54123411 5.49912123 0 0 Z " fill="#FABF2C" transform="translate(449,200)"/>
<path d="M0 0 C9.17911313 7.63310787 17.49520901 16.19505628 25.95458984 24.60449219 C27.99234691 26.62880791 30.03717312 28.64556426 32.08837891 30.65625 C34.57786845 33.09659496 37.05501937 35.54882814 39.52362061 38.01029587 C40.91993116 39.39661932 42.32831552 40.77074748 43.73681641 42.14468384 C44.57519043 42.9859079 45.41356445 43.82713196 46.27734375 44.69384766 C47.39484009 45.79921371 47.39484009 45.79921371 48.53491211 46.9269104 C50 49 50 49 50.00544739 50.97010803 C48.62944041 53.74812064 46.81772923 55.57980516 44.63549805 57.78442383 C44.18335938 58.24503204 43.7312207 58.70564026 43.26538086 59.1802063 C41.77190743 60.69703772 40.26752796 62.20245193 38.76171875 63.70703125 C37.71868272 64.75716747 36.67594697 65.80760202 35.63349915 66.85832214 C33.44873983 69.05652198 31.25813732 71.24869849 29.0637207 73.43725586 C26.24877937 76.24628901 23.45254805 79.07317252 20.6608305 81.90526295 C18.51362365 84.07827696 16.35509477 86.23975968 14.19312477 88.39807701 C13.15691748 89.43598083 12.12470406 90.47788764 11.09656334 91.52378273 C9.6605258 92.98187628 8.2069931 94.42267725 6.75268555 95.86254883 C5.92963425 96.68765457 5.10658295 97.51276031 4.2585907 98.36286926 C2 100 2 100 0.00672913 100.04107666 C-2.78148709 98.59457011 -4.64682632 96.71122505 -6.86035156 94.48022461 C-7.32910706 94.0119072 -7.79786255 93.54358978 -8.28082275 93.06108093 C-9.82464325 91.51517453 -11.3575726 89.95892317 -12.890625 88.40234375 C-13.96042394 87.32694816 -15.03088824 86.25221408 -16.10198975 85.17811584 C-18.91655581 82.35210651 -21.72199579 79.51720358 -24.52563477 76.68035889 C-27.38924028 73.78604148 -30.26137861 70.90021924 -33.1328125 68.01367188 C-38.76359817 62.35073117 -44.38477183 56.67836727 -50 51 C-44.93499762 44.8758184 -39.4217079 39.29284139 -33.7890625 33.69140625 C-32.81092733 32.71514014 -31.83301565 31.73865006 -30.85531616 30.76194763 C-28.30285601 28.21327423 -25.74740552 25.66762042 -23.19128418 23.12261963 C-20.57490086 20.51653382 -17.96140697 17.90755379 -15.34765625 15.29882812 C-10.23456754 10.19640882 -5.11831088 5.09718143 0 0 Z " fill="#FABF2C" transform="translate(1183,933)"/>
</svg>
